<?xml version="1.0" encoding="UTF-8" ?>
<!DOCTYPE svg PUBLIC "-//W3C//DTD SVG 1.1//EN" "http://www.w3.org/Graphics/SVG/1.1/DTD/svg11.dtd">
<svg width="500pt" height="500pt" viewBox="0 0 500 500" version="1.1" xmlns="http://www.w3.org/2000/svg">
<g id="#25aae1ff">
<path fill="#25aae1" opacity="1.00" d=" M 227.96 7.35 C 268.97 3.42 311.02 9.70 348.83 26.22 C 407.27 51.23 455.00 100.01 478.71 158.99 C 484.69 173.45 488.96 188.56 492.18 203.86 C 500.22 245.73 497.51 289.67 483.72 330.05 C 472.25 364.09 453.03 395.47 428.09 421.30 C 402.75 447.71 371.37 468.26 337.08 481.05 C 297.98 495.54 255.14 499.97 213.94 493.42 C 164.82 486.05 118.22 462.99 82.43 428.58 C 58.79 406.14 39.79 378.90 26.78 349.02 C 12.54 316.39 5.63 280.60 6.65 245.03 C 7.72 186.93 30.76 129.61 69.95 86.72 C 110.28 41.83 167.81 12.71 227.96 7.35 M 128.22 115.23 C 114.11 115.96 101.63 126.97 98.34 140.58 C 96.59 149.95 95.82 159.50 96.49 169.02 C 96.54 215.33 96.49 261.64 96.52 307.94 C 96.05 321.97 96.34 336.01 96.26 350.05 C 96.42 360.17 95.48 370.53 98.43 380.37 C 101.05 390.72 108.86 399.56 118.83 403.39 C 126.82 406.54 135.58 405.87 143.99 405.99 C 215.00 405.97 286.01 405.99 357.02 405.99 C 362.04 406.01 367.06 405.74 372.08 405.49 C 384.55 404.56 395.94 395.84 400.33 384.16 C 402.63 378.75 402.77 372.80 402.67 367.02 C 402.64 294.34 402.68 221.65 402.65 148.97 C 402.79 137.76 396.89 126.64 387.45 120.57 C 380.66 115.78 372.12 114.60 364.00 115.13 C 305.67 114.90 247.33 115.45 189.00 114.86 C 181.67 115.44 174.34 114.52 167.01 115.16 C 154.07 114.97 141.15 114.89 128.22 115.23 Z" />
<path fill="#25aae1" opacity="1.00" d=" M 192.08 126.28 C 194.54 124.80 196.81 122.30 199.91 122.50 C 256.27 122.53 312.63 122.51 369.00 122.51 C 380.33 122.52 391.02 130.68 394.04 141.60 C 395.29 146.64 395.23 151.87 395.18 157.02 C 395.15 213.65 395.22 270.28 395.15 326.90 C 376.54 345.32 352.70 357.94 327.51 364.71 C 298.71 372.85 267.70 372.19 238.98 364.00 C 231.99 362.55 225.32 358.03 217.95 359.88 C 203.03 363.64 188.50 369.47 172.97 370.23 C 165.63 370.66 158.23 370.26 151.00 368.95 C 150.69 368.54 150.07 367.73 149.77 367.32 C 158.25 361.92 166.85 356.15 172.85 347.91 C 175.55 344.11 178.40 339.83 178.06 334.95 C 178.00 331.04 175.12 328.03 172.52 325.45 C 153.00 305.88 138.42 280.61 134.73 252.95 C 131.27 227.47 134.94 200.73 146.71 177.74 C 157.27 157.19 172.91 139.22 192.08 126.28 M 304.36 194.66 C 300.83 195.68 298.42 199.33 298.69 202.98 C 298.67 223.35 298.72 243.71 298.67 264.07 C 298.58 266.33 298.94 268.69 300.37 270.53 C 303.08 274.85 310.03 274.87 313.33 271.26 C 315.57 269.15 315.86 265.87 315.85 262.97 C 315.82 243.64 315.83 224.31 315.85 204.98 C 315.84 202.05 315.64 198.74 313.42 196.56 C 311.09 194.20 307.42 193.98 304.36 194.66 M 179.40 202.41 C 176.95 204.51 176.59 208.27 177.86 211.11 C 179.63 214.32 183.53 215.47 186.98 215.42 C 195.06 215.52 203.14 215.35 211.23 215.50 C 200.57 229.67 189.29 243.37 178.47 257.43 C 174.75 261.67 175.27 269.85 181.02 272.04 C 185.50 273.49 190.34 272.91 194.98 272.91 C 206.69 272.75 218.41 273.05 230.11 272.78 C 235.45 272.41 237.75 265.88 235.63 261.49 C 234.27 258.13 230.26 257.33 227.04 257.27 C 217.79 257.22 208.54 257.33 199.29 257.24 C 207.68 246.63 216.05 236.01 224.42 225.39 C 227.71 221.00 231.51 216.89 233.82 211.86 C 234.82 209.89 234.84 207.55 234.37 205.43 C 232.92 202.14 229.34 200.17 225.80 200.33 C 213.53 200.15 201.25 200.32 188.98 200.24 C 185.74 200.34 181.97 200.03 179.40 202.41 M 235.59 238.95 C 234.71 247.43 235.40 256.54 240.18 263.85 C 247.29 275.18 265.19 279.05 275.18 269.34 C 276.49 270.54 277.73 271.85 279.23 272.82 C 284.25 275.71 291.85 272.21 291.89 266.11 C 291.97 252.39 292.06 238.65 291.85 224.94 C 291.11 216.99 279.45 215.48 275.67 222.05 C 270.98 219.05 265.83 216.03 260.04 216.47 C 248.23 217.63 237.44 227.07 235.59 238.95 M 342.41 217.54 C 329.76 219.97 321.07 232.45 321.15 244.99 C 320.43 253.71 323.66 262.85 330.47 268.50 C 343.05 279.55 365.33 276.41 373.77 261.76 C 380.17 250.43 379.31 234.58 370.00 225.06 C 362.96 217.90 352.06 215.55 342.41 217.54 Z" />
<path fill="#25aae1" opacity="1.00" d=" M 261.50 232.67 C 266.26 231.43 271.75 233.55 273.95 238.06 C 276.41 242.86 276.39 249.04 273.87 253.81 C 271.50 258.31 265.78 260.54 260.97 258.99 C 249.74 255.32 249.87 235.62 261.50 232.67 Z" />
<path fill="#25aae1" opacity="1.00" d=" M 346.42 232.67 C 350.95 231.51 356.35 233.05 358.69 237.34 C 363.11 244.45 361.24 256.60 352.27 259.06 C 344.93 261.33 337.55 254.33 338.16 246.98 C 337.44 241.14 340.16 234.09 346.42 232.67 Z" />
</g>
<g id="#ffffffff">
<path fill="#ffffff" opacity="1.00" d=" M 128.22 115.23 C 141.15 114.89 154.07 114.97 167.01 115.16 C 174.34 114.52 181.67 115.44 189.00 114.86 C 247.33 115.45 305.67 114.90 364.00 115.13 C 372.12 114.60 380.66 115.78 387.45 120.57 C 396.89 126.64 402.79 137.76 402.65 148.97 C 402.68 221.65 402.64 294.34 402.67 367.02 C 402.77 372.80 402.63 378.75 400.33 384.16 C 395.94 395.84 384.55 404.56 372.08 405.49 C 367.06 405.74 362.04 406.01 357.02 405.99 C 286.01 405.99 215.00 405.97 143.99 405.99 C 135.58 405.87 126.82 406.54 118.83 403.39 C 108.86 399.56 101.05 390.72 98.43 380.37 C 95.48 370.53 96.42 360.17 96.26 350.05 C 96.34 336.01 96.05 321.97 96.52 307.94 C 96.49 261.64 96.54 215.33 96.49 169.02 C 95.82 159.50 96.59 149.95 98.34 140.58 C 101.63 126.97 114.11 115.96 128.22 115.23 M 192.08 126.28 C 172.91 139.22 157.27 157.19 146.71 177.74 C 134.94 200.73 131.27 227.47 134.73 252.95 C 138.42 280.61 153.00 305.88 172.52 325.45 C 175.12 328.03 178.00 331.04 178.06 334.95 C 178.40 339.83 175.55 344.11 172.85 347.91 C 166.85 356.15 158.25 361.92 149.77 367.32 C 150.07 367.73 150.69 368.54 151.00 368.95 C 158.23 370.26 165.63 370.66 172.97 370.23 C 188.50 369.47 203.03 363.64 217.95 359.88 C 225.32 358.03 231.99 362.55 238.98 364.00 C 267.70 372.19 298.71 372.85 327.51 364.71 C 352.70 357.94 376.54 345.32 395.15 326.90 C 395.22 270.28 395.15 213.65 395.18 157.02 C 395.23 151.87 395.29 146.64 394.04 141.60 C 391.02 130.68 380.33 122.52 369.00 122.51 C 312.63 122.51 256.27 122.53 199.91 122.50 C 196.81 122.30 194.54 124.80 192.08 126.28 Z" />
<path fill="#ffffff" opacity="1.00" d=" M 304.36 194.66 C 307.42 193.98 311.09 194.20 313.42 196.56 C 315.64 198.74 315.84 202.05 315.85 204.98 C 315.83 224.31 315.82 243.64 315.85 262.97 C 315.86 265.87 315.57 269.15 313.33 271.26 C 310.03 274.87 303.08 274.85 300.37 270.53 C 298.94 268.69 298.58 266.33 298.67 264.07 C 298.72 243.71 298.67 223.35 298.69 202.98 C 298.42 199.33 300.83 195.68 304.36 194.66 Z" />
<path fill="#ffffff" opacity="1.00" d=" M 179.40 202.41 C 181.97 200.03 185.74 200.34 188.98 200.24 C 201.25 200.32 213.53 200.15 225.80 200.33 C 229.34 200.17 232.92 202.14 234.37 205.43 C 234.84 207.55 234.82 209.89 233.82 211.86 C 231.51 216.89 227.71 221.00 224.42 225.39 C 216.05 236.01 207.68 246.63 199.29 257.24 C 208.54 257.33 217.79 257.22 227.04 257.27 C 230.26 257.33 234.27 258.13 235.63 261.49 C 237.75 265.88 235.45 272.41 230.11 272.78 C 218.41 273.05 206.69 272.75 194.98 272.91 C 190.34 272.91 185.50 273.49 181.02 272.04 C 175.27 269.85 174.75 261.67 178.47 257.43 C 189.29 243.37 200.57 229.67 211.23 215.50 C 203.14 215.35 195.06 215.52 186.98 215.42 C 183.53 215.47 179.63 214.32 177.86 211.11 C 176.59 208.27 176.95 204.51 179.40 202.41 Z" />
<path fill="#ffffff" opacity="1.00" d=" M 235.59 238.95 C 237.44 227.07 248.23 217.63 260.04 216.47 C 265.83 216.03 270.98 219.05 275.67 222.05 C 279.45 215.48 291.11 216.99 291.85 224.94 C 292.06 238.65 291.97 252.39 291.89 266.11 C 291.85 272.21 284.25 275.71 279.23 272.82 C 277.73 271.85 276.49 270.54 275.18 269.34 C 265.19 279.05 247.29 275.18 240.18 263.85 C 235.40 256.54 234.71 247.43 235.59 238.95 M 261.50 232.67 C 249.87 235.62 249.74 255.32 260.97 258.99 C 265.78 260.54 271.50 258.31 273.87 253.81 C 276.39 249.04 276.41 242.86 273.95 238.06 C 271.75 233.55 266.26 231.43 261.50 232.67 Z" />
<path fill="#ffffff" opacity="1.00" d=" M 342.41 217.54 C 352.06 215.55 362.96 217.90 370.00 225.06 C 379.31 234.58 380.17 250.43 373.77 261.76 C 365.33 276.41 343.05 279.55 330.47 268.50 C 323.66 262.85 320.43 253.71 321.15 244.99 C 321.07 232.45 329.76 219.97 342.41 217.54 M 346.42 232.67 C 340.16 234.09 337.44 241.14 338.16 246.98 C 337.55 254.33 344.93 261.33 352.27 259.06 C 361.24 256.60 363.11 244.45 358.69 237.34 C 356.35 233.05 350.95 231.51 346.42 232.67 Z" />
</g>
</svg>
